<?xml version="1.0"?>
<svg xmlns="http://www.w3.org/2000/svg" xmlns:xlink="http://www.w3.org/1999/xlink" xmlns:svgjs="http://svgjs.com/svgjs" version="1.1" width="512" height="512" x="0" y="0" viewBox="0 0 24 24" style="enable-background:new 0 0 512 512" xml:space="preserve" class=""><g><path xmlns="http://www.w3.org/2000/svg" d="m20 5.95v3.42c-.79-.24-1.63-.37-2.5-.37-4.69 0-8.5 3.81-8.5 8.5 0 .87.13 1.71.37 2.5h-8.48c-.49 0-.89-.4-.89-.89v-13.16z" fill="#ffb74d" data-original="#ffb74d" style="" class=""/><path xmlns="http://www.w3.org/2000/svg" d="m20 5.946h-20l2.995-5.395c.183-.335.551-.551.94-.551h12.13c.389 0 .757.216.94.551z" fill="#ffa726" data-original="#ffa726" style="" class=""/><path xmlns="http://www.w3.org/2000/svg" d="m10.811 0 1.081 5.946h-3.784l1.081-5.946z" fill="#795548" data-original="#795548" style="" class=""/><path xmlns="http://www.w3.org/2000/svg" d="m10 5.95h-10v13.16c0 .49.4.89.89.89h8.48c-.24-.79-.37-1.63-.37-2.5 0-1.446.362-2.807 1-4z" fill="#de8743" data-original="#de9f43" style="" class=""/><path xmlns="http://www.w3.org/2000/svg" d="m9.189 0h-5.254c-.389 0-.757.216-.94.551l-2.995 5.395h10-1.892z" fill="#de9121" data-original="#de9121" style="" class=""/><path xmlns="http://www.w3.org/2000/svg" d="m10 0h-.811l-1.081 5.946h1.892z" fill="#694a3f" data-original="#694a3f" style="" class=""/><path xmlns="http://www.w3.org/2000/svg" d="m17.5 11c-3.584 0-6.5 2.916-6.5 6.5s2.916 6.5 6.5 6.5 6.5-2.916 6.5-6.5-2.916-6.5-6.5-6.5z" fill="#e0aa1d" data-original="#2196f3" style="" class=""/><path xmlns="http://www.w3.org/2000/svg" d="m17.5 21c-.414 0-.75-.336-.75-.75v-5.5c0-.414.336-.75.75-.75s.75.336.75.75v5.5c0 .414-.336.75-.75.75z" fill="#ffffff" data-original="#ffffff" style="" class=""/><path xmlns="http://www.w3.org/2000/svg" d="m20.25 18.25h-5.5c-.414 0-.75-.336-.75-.75s.336-.75.75-.75h5.5c.414 0 .75.336.75.75s-.336.75-.75.75z" fill="#ffffff" data-original="#ffffff" style="" class=""/><path xmlns="http://www.w3.org/2000/svg" d="m17.5 11c-3.584 0-6.5 2.916-6.5 6.5s2.916 6.5 6.5 6.5v-3c-.414 0-.75-.336-.75-.75v-2h-2c-.414 0-.75-.336-.75-.75s.336-.75.75-.75h2v-2c0-.414.336-.75.75-.75z" fill="#d4311d" data-original="#1d83d4" style="" class=""/><g xmlns="http://www.w3.org/2000/svg" fill="#dedede"><path d="m17.5 18.25h-.75v2c0 .414.336.75.75.75zm0-4.25c-.414 0-.75.336-.75.75v2h.75z" fill="#dedede" data-original="#dedede" style="" class=""/><path d="m17.5 16.75h-.75-2c-.414 0-.75.336-.75.75s.336.75.75.75h2 .75z" fill="#dedede" data-original="#dedede" style="" class=""/></g></g></svg>
