<?xml version="1.0"?>
<svg xmlns="http://www.w3.org/2000/svg" xmlns:xlink="http://www.w3.org/1999/xlink" xmlns:svgjs="http://svgjs.com/svgjs" version="1.1" width="512" height="512" x="0" y="0" viewBox="0 0 512 512" style="enable-background:new 0 0 512 512" xml:space="preserve" class=""><g><g xmlns="http://www.w3.org/2000/svg"><g><path d="m32.5 413 373-40-62-373-343 37z" fill="#e6832a" data-original="#d68034" style=""/><path d="m220.5 136 62-28-28-52-85 32 46 122c-11-11-28-22-53-22-37 0-67 34.758-67 69 0 29 28 62 74 62 40.869 0 82-26 82-66 0-9.363-31-117-31-117z" fill="#f3d544" data-original="#f3d544" style=""/><g fill="#b66624"><path d="m122.5 375-73 8-4-88z" fill="#b66624" data-original="#b66624" style=""/><path d="m38.5 102 92-21 9 20-97 21z" fill="#b66624" data-original="#b66624" style=""/><path d="m45.5 141 98-26 9 18-103 26z" fill="#b66624" data-original="#b66624" style=""/></g></g><g><g><path d="m338.5 166c-80 0-173 77.455-173 173 0 103 85 173 173 173 91 0 173-77.455 173-173s-77.455-173-173-173zm0 193c-11.046 0-20-8.954-20-20 0-10 8.954-20 20-20s22 8.954 22 20-10.954 20-22 20z" fill="#e7e2d5" data-original="#e7e2d5" style=""/><path d="m339.5 182c-90 0-157 70.291-157 157 0 86.708 70.291 159 157 159 79 0 159-85 159-161 0-86.709-72.291-155-159-155zm-1 177c-11.046 0-20-8.954-20-20 0-10 8.954-20 20-20s22 8.954 22 20-10.954 20-22 20z" fill="#f4efe3" data-original="#f4efe3" style=""/><path d="m339.5 303c-17 0-36 16.118-36 36s16.118 36 36 36 36-20 36-36c0-19.882-20-36-36-36zm-1 56c-11.046 0-20-8.954-20-20 0-10 8.954-20 20-20s22 8.954 22 20-10.954 20-22 20z" fill="#e7e2d5" data-original="#e7e2d5" style=""/></g><path d="m340.5 200c-77.32 0-140 62.68-140 140s42 140 140 140c77.32 0 140-62.68 140-140 0-92-62.68-140-140-140zm0 196c-30.928 0-56-25.072-56-56s30-56 56-56c30.928 0 56 25.072 56 56 0 26-25.072 56-56 56z" fill="#f3d544" data-original="#f3d544" style=""/><g fill="#edbc40"><path d="m210.611 287.687 79.724 29.066c6.532-12.636 17.833-22.753 30.203-28.239l-35.244-77.201c-33.885 14.556-60.867 42.102-74.683 76.374z" fill="#edbc40" data-original="#edbc40" style=""/><path d="m472.25 387.442-81.324-25.21c-5.528 11.176-14.814 21.277-26.252 27.459l41.738 73.845c30.36-16.233 54.036-43.326 65.838-76.094z" fill="#edbc40" data-original="#edbc40" style=""/></g></g></g></g></svg>
