<?xml version="1.0"?>
<svg xmlns="http://www.w3.org/2000/svg" xmlns:xlink="http://www.w3.org/1999/xlink" xmlns:svgjs="http://svgjs.com/svgjs" version="1.1" width="512" height="512" x="0" y="0" viewBox="0 0 512 512" style="enable-background:new 0 0 512 512" xml:space="preserve" class=""><g><g xmlns="http://www.w3.org/2000/svg"><path d="m512 139.81v357.19c0 8.28-6.72 15-15 15h-422.17c-8.28 0-15-6.72-15-15v-482c0-8.28 6.72-15 15-15h295.56c3.94 0 7.72 1.55 10.53 4.32l126.61 124.8c2.86 2.82 4.47 6.67 4.47 10.69z" fill="#f4f1f1" data-original="#f4f1f1" style=""/><path d="m507.53 129.12-126.61-124.8c-2.81-2.77-6.59-4.32-10.53-4.32h-84.475v512h211.085c8.28 0 15-6.72 15-15v-357.19c0-4.02-1.61-7.87-4.47-10.69z" fill="#eceae7" data-original="#eceae7" style=""/><path d="m512 139.81v15h-111.62c-24.81 0-44.99-20.19-44.99-45v-109.81h15c3.94 0 7.72 1.55 10.53 4.32l126.61 124.8c2.86 2.82 4.47 6.67 4.47 10.69z" fill="#e7dfdd" data-original="#e7dfdd" style=""/><path d="m315.62 206.68v157.49c0 43.62-35.49 79.11-79.11 79.11h-157.4c-43.62 0-79.11-35.49-79.11-79.11v-157.49c0-43.62 35.49-79.11 79.11-79.11h157.4c43.62 0 79.11 35.49 79.11 79.11z" fill="#f69528" data-original="#ff405c" style="" class=""/><path d="m236.51 127.57h-78.7v315.71h78.7c43.62 0 79.11-35.49 79.11-79.11v-157.49c0-43.62-35.49-79.11-79.11-79.11z" fill="#da0451" data-original="#d01273" style="" class=""/><path d="m100.971 322.651 46.233 46.233c2.812 2.813 6.628 4.393 10.606 4.393s7.794-1.58 10.606-4.394l46.232-46.233c5.858-5.858 5.858-15.355 0-21.213-5.857-5.858-15.355-5.858-21.213 0l-20.626 20.626v-108.935c0-8.284-6.716-15-15-15s-15 6.716-15 15v108.937l-20.627-20.627c-2.929-2.929-6.768-4.393-10.606-4.393s-7.678 1.465-10.606 4.394c-5.858 5.857-5.858 15.354.001 21.212z" fill="#e7dfdd" data-original="#e7dfdd" style=""/><path d="m100.971 322.651 46.233 46.233c2.812 2.813 6.628 4.393 10.606 4.393v-175.15c-8.284 0-15 6.716-15 15v108.937l-20.627-20.627c-2.929-2.929-6.768-4.393-10.606-4.393s-7.678 1.465-10.606 4.394c-5.859 5.858-5.859 15.355 0 21.213z" fill="#f4f1f1" data-original="#f4f1f1" style=""/></g></g></svg>
