<svg height="511pt" viewBox="-15 0 511 511.99825" width="511pt" xmlns="http://www.w3.org/2000/svg"><path d="m30.894531 383.792969c-3.738281-6.339844-7.152343-12.808594-10.21875-19.375-17.640625-37.761719-23.753906-77.21875-18.179687-117.28125 6.148437-44.183594 26.460937-87.132813 60.371094-127.648438 3.4375-4.105469 8.800781-6.070312 14.082031-5.148437 5.277343.921875 9.660156 4.585937 11.503906 9.617187 5.320313 14.515625 12.285156 27.589844 20.703125 38.859375 1.21875 1.628906 2.753906 2.011719 3.832031 2.042969.894531.03125 2.613281-.171875 3.992188-1.804687 32.375-38.304688 52.226562-91.222657 55.898437-149.007813.523438-8.265625 7.679688-14.539063 15.921875-14.015625 45.125 2.867188 88.308594 26.234375 121.601563 65.792969 32.234375 38.300781 53.855468 90.21875 60.878906 146.179687.214844 1.695313.859375 2.710938 2.304688 3.617188 1.445312.90625 2.640624 1.046875 4.257812.5 27.164062-9.183594 50.382812-34.542969 57.777344-63.109375 1.652344-6.375 7.269531-10.929688 13.855468-11.222657 6.574219-.296874 12.582032 3.738282 14.796876 9.945313 16.25 45.59375 21.777343 94.269531 15.984374 140.761719-4.046874 32.460937-13.519531 63.539062-27.769531 91.515625-5.519531 10.84375-401.542969 33.789062-421.59375-.21875zm0 0" fill="#ff1f3e"/><path d="m464.269531 151.734375c-2.210937-6.207031-8.21875-10.242187-14.796875-9.949219-6.582031.292969-12.199218 4.847656-13.851562 11.226563-7.394532 28.5625-30.613282 53.925781-57.777344 63.109375-1.617188.542968-2.8125.402344-4.261719-.503906-1.441406-.902344-2.089843-1.917969-2.300781-3.613282-7.023438-55.964844-28.644531-107.878906-60.878906-146.183594-19.847656-23.582031-43.210938-41.40625-68.40625-52.566406v387.605469c103.953125-2.695313 207.683594-11.335937 210.492187-16.847656 14.246094-27.976563 23.71875-59.054688 27.765625-91.515625 5.796875-46.492188.269532-95.167969-15.984375-140.761719zm0 0" fill="#d10050"/><path d="m415.136719 317.359375c-3.449219-3.433594-8.359375-4.972656-13.144531-4.140625-4.796876.835938-8.890626 3.945312-10.976563 8.34375-7.191406 15.144531-27.9375 40.914062-42.816406 45.253906-3.652344 1.066406-5.492188.367188-6.808594-.457031-.40625-.257813-.421875-.277344-.480469-.757813-5.65625-45.085937-23.121094-83.082031-50.5-109.886718-26.089844-25.539063-60.207031-40.332032-98.664062-42.777344-3.964844-.246094-7.875 1.085938-10.863282 3.714844-2.984374 2.628906-4.804687 6.335937-5.054687 10.304687-2.910156 45.730469-18.589844 87.578125-44.152344 117.824219-.097656.113281-.339843.421875-.855469.402344-.40625-.011719-.617187-.222656-.785156-.449219-6.582031-8.8125-12.03125-19.050781-16.203125-30.429687-1.429687-3.902344-4.414062-7.035157-8.242187-8.652344-3.828125-1.617188-8.15625-1.574219-11.949219.117187-17.941406 8-35.488281 24.351563-48.136719 44.867188-6.609375 10.726562-11.523437 21.953125-14.609375 33.15625 20.050781 34.003906 49.417969 64.394531 84.398438 87.003906 41.105469 26.570313 87.972656 41.203125 131.960937 41.203125 38.851563 0 75.167969-8.953125 107.949219-26.601562 31.015625-16.703126 57.464844-40.375 78.605469-70.355469 6.917968-9.8125 13.15625-20.1875 18.679687-31.03125-7.363281-33.121094-26.800781-56.164063-37.351562-66.652344zm0 0" fill="#ffde46"/><path d="m415.136719 317.359375c-3.449219-3.433594-8.359375-4.972656-13.144531-4.140625-4.796876.835938-8.890626 3.945312-10.976563 8.34375-7.191406 15.144531-27.9375 40.914062-42.816406 45.253906-3.652344 1.066406-5.492188.367188-6.808594-.457031-.40625-.257813-.421875-.277344-.480469-.757813-5.65625-45.085937-23.121094-83.082031-50.5-109.886718-14.011718-13.714844-30.339844-24.328125-48.410156-31.59375v287.796875c1.753906.046875 3.507812.078125 5.253906.078125 38.851563 0 75.167969-8.949219 107.949219-26.601563 31.015625-16.703125 57.464844-40.371093 78.605469-70.355469 6.917968-9.808593 13.15625-20.1875 18.679687-31.027343-7.363281-33.121094-26.800781-56.164063-37.351562-66.652344zm0 0" fill="#fdbf00"/></svg>