<?xml version="1.0"?>
<svg xmlns="http://www.w3.org/2000/svg" xmlns:xlink="http://www.w3.org/1999/xlink" xmlns:svgjs="http://svgjs.com/svgjs" version="1.1" width="512" height="512" x="0" y="0" viewBox="0 0 74 74" style="enable-background:new 0 0 512 512" xml:space="preserve" class=""><g><path xmlns="http://www.w3.org/2000/svg" d="m19.329 33.357a15.611 15.611 0 0 1 -1.8-9.539 4.43 4.43 0 0 0 3.084 3.431s-2.367-9.341 5.893-13.913c-.56 2.474-.754 5.5 1.643 7.459 5.6-5.941 5.317-12.229 2.89-18.695 8.364 3.042 11.986 10 10.978 16.622 3.592-3.153 4.81-6.522 3.809-10.649 7.655 5.534 8.476 11.673 5.683 18.442a8.471 8.471 0 0 0 4.175-4.677 11.815 11.815 0 0 1 -1.516 11.544" fill="#f21616" data-original="#fcd462" style="" class=""/><path xmlns="http://www.w3.org/2000/svg" d="m28.108 20.75a19.009 19.009 0 0 1 -1.91 2.36c-2.39-1.96-2.2-4.99-1.64-7.46a12.777 12.777 0 0 0 -2.4 1.7 11.755 11.755 0 0 1 4.35-4.01c-.56 2.46-.76 5.45 1.6 7.41z" fill="#ffff00" data-original="#f7be56" style="" class=""/><path xmlns="http://www.w3.org/2000/svg" d="m42.018 18.72c.22-.2.44-.39.64-.58a14.855 14.855 0 0 1 -2.59 2.89c.88-5.74-1.73-11.73-7.89-15.2a28.862 28.862 0 0 0 -1.14-3.73c8.37 3.04 11.99 10 10.98 16.62z" fill="#ffff00" data-original="#f7be56" style="" class=""/><path xmlns="http://www.w3.org/2000/svg" d="m49.558 28.83c2.51-6.06 2.11-11.62-3.5-16.68a10.4 10.4 0 0 0 -.23-4.08c7.65 5.54 8.47 11.68 5.68 18.44z" fill="#ffff00" data-original="#f7be56" style="" class=""/><path xmlns="http://www.w3.org/2000/svg" d="m54.168 33.38h-.61a11.637 11.637 0 0 0 .38-8.66v-.01a10.979 10.979 0 0 0 1.75-2.87 11.832 11.832 0 0 1 -1.52 11.54z" fill="#ffff00" data-original="#f7be56" style="" class=""/><path xmlns="http://www.w3.org/2000/svg" d="m29.236 29.788a5.409 5.409 0 0 1 2.846-5.988 3.286 3.286 0 0 0 .767 3.487c2.618-2.775 2.482-5.714 1.35-8.736 3.91 1.421 5.6 4.671 5.13 7.766a4.684 4.684 0 0 0 1.779-4.976c3.577 2.589 4.019 5.312 2.716 8.473-4.187 7.229-9.04 7.32-14.588-.026z" fill="#fcf100" data-original="#ea6453" style="" class=""/><path xmlns="http://www.w3.org/2000/svg" d="m37.03 35.767c-2.592 0-5.346-1.908-8.193-5.678a.5.5 0 0 1 -.085-.173 5.959 5.959 0 0 1 3.087-6.551.5.5 0 0 1 .73.549 3.11 3.11 0 0 0 .264 2.644c1.832-2.171 2.105-4.609.9-7.829a.5.5 0 0 1 .64-.646c3.362 1.222 5.42 3.85 5.534 6.912a3.9 3.9 0 0 0 .718-3.535.5.5 0 0 1 .779-.522c3.48 2.519 4.4 5.4 2.885 9.069-2.129 3.684-4.453 5.6-6.937 5.75-.109.007-.215.01-.322.01zm-7.331-6.2c2.725 3.584 5.275 5.329 7.59 5.188 2.128-.13 4.181-1.877 6.1-5.193 1.168-2.844.7-5.023-1.624-7.062a5.3 5.3 0 0 1 -2.106 4.2.5.5 0 0 1 -.825-.451 6.443 6.443 0 0 0 -3.8-6.789 7.867 7.867 0 0 1 -1.817 8.177.5.5 0 0 1 -.68.044 3.255 3.255 0 0 1 -1.116-2.829 4.84 4.84 0 0 0 -1.721 4.719z" fill="#323c6b" data-original="#323c6b" style="" class=""/><path xmlns="http://www.w3.org/2000/svg" d="m54.167 33.882a.5.5 0 0 1 -.4-.794 11.24 11.24 0 0 0 1.828-9.924 8.375 8.375 0 0 1 -3.851 3.794.5.5 0 0 1 -.693-.634c2.847-6.9 1.424-12.352-4.486-17.067.511 3.733-.849 6.887-4.214 9.841a.5.5 0 0 1 -.824-.451c1.019-6.7-2.742-12.755-9.641-15.678 1.668 4.884 2.726 11.7-3.369 18.169a.5.5 0 0 1 -.68.044c-2.431-1.989-2.334-5-2.04-6.827-6.691 4.475-4.787 12.421-4.697 12.771a.5.5 0 0 1 -.594.611 4.26 4.26 0 0 1 -2.565-1.8 13.828 13.828 0 0 0 1.82 7.162.5.5 0 1 1 -.86.512 15.944 15.944 0 0 1 -1.868-9.838.5.5 0 0 1 .984-.075 4.307 4.307 0 0 0 1.953 2.779c-.354-2.514-.678-9.72 6.3-13.581a.5.5 0 0 1 .73.548c-.7 3.081-.343 5.21 1.121 6.648 4.461-4.949 5.216-10.467 2.456-17.818a.5.5 0 0 1 .639-.645c7.512 2.736 11.884 8.841 11.443 15.796a9.224 9.224 0 0 0 2.681-9.235.5.5 0 0 1 .779-.523c6.772 4.9 8.82 10.536 6.375 17.658a8.412 8.412 0 0 0 2.736-3.7.484.484 0 0 1 .473-.29.5.5 0 0 1 .449.325 12.3 12.3 0 0 1 -1.579 12.012.5.5 0 0 1 -.406.21z" fill="#323c6b" data-original="#323c6b" style="" class=""/><path xmlns="http://www.w3.org/2000/svg" d="m36.788 32.829a12.92 12.92 0 0 0 -8.308-3.013c-7.166 0-13.315 5.817-12.974 12.975.465 9.8 21.282 26.309 21.282 26.309s20.812-16.511 21.282-26.309c.34-7.158-5.809-12.975-12.974-12.975a12.92 12.92 0 0 0 -8.308 3.013z" fill="#f02d2d" data-original="#fe7058" style="" class=""/><path xmlns="http://www.w3.org/2000/svg" d="m58.068 42.79c-.46 9.8-21.28 26.31-21.28 26.31s-11.86-9.41-17.87-18.23c6.31 7.87 15.7 15.32 15.7 15.32s20.82-16.51 21.29-26.31a11.619 11.619 0 0 0 -1.4-6.14 11.966 11.966 0 0 1 3.56 9.05z" fill="#fcf100" data-original="#ea6453" style="" class=""/><g xmlns="http://www.w3.org/2000/svg" fill="#323c6b"><path d="m36.788 69.6a.5.5 0 0 1 -.31-.109c-.858-.679-21-16.766-21.472-26.678a12.445 12.445 0 0 1 3.515-9.239 13.82 13.82 0 0 1 9.959-4.259 13.491 13.491 0 0 1 8.308 2.87 13.489 13.489 0 0 1 8.308-2.87 13.823 13.823 0 0 1 9.959 4.259 12.448 12.448 0 0 1 3.515 9.239c-.471 9.912-20.614 26-21.471 26.678a.5.5 0 0 1 -.311.109zm-8.308-39.284a12.814 12.814 0 0 0 -9.236 3.949 11.455 11.455 0 0 0 -3.239 8.5c.419 8.818 18.2 23.589 20.783 25.691 2.585-2.1 20.364-16.875 20.783-25.691a11.459 11.459 0 0 0 -3.239-8.5 12.817 12.817 0 0 0 -9.232-3.949 12.485 12.485 0 0 0 -7.988 2.9.5.5 0 0 1 -.64 0 12.487 12.487 0 0 0 -7.992-2.9z" fill="#323c6b" data-original="#323c6b" style="" class=""/><path d="m17.8 20.625a.5.5 0 0 1 -.484-.625l.032-.135c.02-.084.039-.168.063-.252a.5.5 0 1 1 .964.266l-.089.363a.5.5 0 0 1 -.486.383z" fill="#323c6b" data-original="#323c6b" style="" class=""/><path d="m18.664 18.083a.5.5 0 0 1 -.457-.7 14.951 14.951 0 0 1 6.6-7.107.5.5 0 1 1 .484.875 13.974 13.974 0 0 0 -6.174 6.639.5.5 0 0 1 -.453.293z" fill="#323c6b" data-original="#323c6b" style="" class=""/><path d="m56.325 54.167a.5.5 0 0 1 -.405-.793c.152-.212.3-.424.441-.637l.155-.228a.5.5 0 0 1 .825.565l-.153.225c-.149.221-.3.44-.458.66a.5.5 0 0 1 -.405.208z" fill="#323c6b" data-original="#323c6b" style="" class=""/><path d="m47.631 64a.5.5 0 0 1 -.349-.858 86.206 86.206 0 0 0 6.912-7.508.5.5 0 0 1 .779.627 87.168 87.168 0 0 1 -6.993 7.6.5.5 0 0 1 -.349.139z" fill="#323c6b" data-original="#323c6b" style="" class=""/><path d="m24.7 52.375a.5.5 0 0 1 -.386-.182l-.225-.27c-.194-.234-.388-.466-.57-.7a.5.5 0 1 1 .784-.621c.177.224.366.45.554.677l.228.274a.5.5 0 0 1 -.385.818z" fill="#323c6b" data-original="#323c6b" style="" class=""/><path d="m21.952 48.75a.5.5 0 0 1 -.417-.222c-1.609-2.41-2.461-4.4-2.533-5.9a8.339 8.339 0 0 1 1.505-5.159.5.5 0 1 1 .823.568 7.338 7.338 0 0 0 -1.33 4.54c.063 1.323.859 3.139 2.366 5.4a.5.5 0 0 1 -.415.778z" fill="#323c6b" data-original="#323c6b" style="" class=""/></g></g></svg>
