<svg id="Capa_1" enable-background="new 0 0 510 510" height="512" viewBox="0 0 510 510" width="512" xmlns="http://www.w3.org/2000/svg" xmlns:xlink="http://www.w3.org/1999/xlink"><linearGradient id="SVGID_1_" gradientUnits="userSpaceOnUse" x1="-30" x2="546.222" y1="267.26" y2="267.26"><stop offset="0" stop-color="#fff9df"/><stop offset=".593" stop-color="#ffe177"/><stop offset="1" stop-color="#feb237"/></linearGradient><linearGradient id="SVGID_2_" gradientUnits="userSpaceOnUse" x1="42" x2="471.117" y1="267.262" y2="267.262"><stop offset="0" stop-color="#ffe177"/><stop offset="1" stop-color="#feb237"/></linearGradient><linearGradient id="SVGID_3_" gradientUnits="userSpaceOnUse" x1="148.569" x2="361.431" y1="197.343" y2="197.343"><stop offset="0" stop-color="#f8f6f7"/><stop offset=".1788" stop-color="#f8f6f7"/><stop offset="1" stop-color="#e7e6f5"/></linearGradient><linearGradient id="lg1"><stop offset="0" stop-color="#f8f6f7"/><stop offset="1" stop-color="#d1ceeb"/></linearGradient><linearGradient id="SVGID_4_" gradientUnits="userSpaceOnUse" x1="124" x2="229.546" xlink:href="#lg1" y1="180.265" y2="180.265"/><linearGradient id="SVGID_5_" gradientUnits="userSpaceOnUse" x1="234" x2="381.868" xlink:href="#lg1" y1="197.345" y2="197.345"/><linearGradient id="lg2"><stop offset="0" stop-color="#fe646f"/><stop offset=".593" stop-color="#fb2b3a"/><stop offset="1" stop-color="#c41926"/></linearGradient><linearGradient id="SVGID_6_" gradientUnits="userSpaceOnUse" x1="212.875" x2="478.855" xlink:href="#lg2" y1="140.937" y2="140.937"/><linearGradient id="SVGID_7_" gradientUnits="userSpaceOnUse" x1="-16" x2="381.475" xlink:href="#lg2" y1="185.64" y2="185.64"/><linearGradient id="lg3"><stop offset="0" stop-color="#537983"/><stop offset=".593" stop-color="#554e56"/><stop offset="1" stop-color="#433f43"/></linearGradient><linearGradient id="SVGID_8_" gradientUnits="userSpaceOnUse" x1="126.915" x2="419.056" xlink:href="#lg3" y1="388.631" y2="388.631"/><linearGradient id="SVGID_9_" gradientUnits="userSpaceOnUse" x1="27.575" x2="356.552" xlink:href="#lg3" y1="388.631" y2="388.631"/><linearGradient id="SVGID_10_" gradientUnits="userSpaceOnUse" x1="83.072" x2="454.721" xlink:href="#lg2" y1="140.937" y2="140.937"/><g><path d="m438.926 510h-367.852c-18.692 0-33.844-15.153-33.844-33.844v-260.354l175.74-173.996c23.28-23.049 60.781-23.049 84.061 0l175.74 173.996v260.354c-.001 18.691-15.153 33.844-33.845 33.844z" fill="url(#SVGID_1_)"/><path d="m297.03 41.81c-16.83-16.66-41.09-21.28-62.04-13.85-8.03 2.84-15.57 7.46-22.02 13.85l-175.74 173.99v89.94c6.89 2.47 14.88.94 20.39-4.57l65.938-65.938v17.429c0 9.239 7.49 16.728 16.728 16.728h179.405c9.239 0 16.728-7.49 16.728-16.728v-60.615c0-4.124-1.5-7.894-3.974-10.81l67.587 67.587c11.54 11.54 20.287 25.348 25.823 40.373h-59.855c-6.907 0-12.505 5.599-12.505 12.505 0 6.907 5.599 12.505 12.505 12.505h53.115c7.464 0 13.626 6.002 13.635 13.466v.137 39.791h-40.75c-6.907 0-12.505 5.599-12.505 12.505 0 6.907 5.599 12.505 12.505 12.505h27.116c7.53 0 13.634 6.104 13.634 13.634v39.76h-22.083c-6.907 0-12.505 5.599-12.505 12.505 0 6.907 5.599 12.505 12.505 12.505h16.94c2.84 0 5.143 2.303 5.143 5.143 0 18.69-15.15 33.84-33.84 33.84h40.02c18.689 0 33.84-15.151 33.84-33.84v-260.357zm22.661 133.508h-136.219l53.378-53.378c10.02-10.03 26.28-10.03 36.3 0l57.352 57.352c-2.917-2.475-6.686-3.974-10.811-3.974z" fill="url(#SVGID_2_)"/><path d="m344.703 244.379h-179.406c-9.239 0-16.728-7.49-16.728-16.728v-60.615c0-9.239 7.49-16.728 16.728-16.728h179.405c9.239 0 16.728 7.49 16.728 16.728v60.615c.001 9.238-7.489 16.728-16.727 16.728z" fill="url(#SVGID_3_)"/><path d="m165.3 150.31h43.18l-59.91 59.91v-43.18c0-9.24 7.49-16.73 16.73-16.73z" fill="url(#SVGID_4_)"/><path d="m361.43 167.04v60.61c0 9.24-7.49 16.73-16.73 16.73h-40.02c9.24 0 16.73-7.49 16.73-16.73v-29.322c0-18.01-7.155-35.283-19.89-48.018h43.18c9.24 0 16.73 7.49 16.73 16.73z" fill="url(#SVGID_5_)"/><path d="m273.15 96.924 179.233 179.234c7.621 7.621 19.977 7.621 27.598 0l24.303-24.303c7.621-7.621 7.621-19.977 0-27.598l-206.559-206.56c-23.597-23.597-61.854-23.597-85.451 0l-206.558 206.559c-7.621 7.621-7.621 19.977 0 27.598l24.303 24.303c7.621 7.621 19.977 7.621 27.598 0l179.234-179.233c10.023-10.024 26.275-10.024 36.299 0z" fill="url(#SVGID_6_)"/><path d="m233.129 96.924c-10.024-10.024-26.275-10.024-36.299 0l-173.022 173.023 6.211 6.211c7.621 7.621 19.977 7.621 27.598 0l177.373-177.373z" fill="url(#SVGID_7_)"/><path d="m359.747 510h-209.494v-137.991c0-57.85 46.897-104.747 104.747-104.747 57.85 0 104.747 46.897 104.747 104.747z" fill="url(#SVGID_8_)"/><path d="m255 267.262c-6.844 0-13.532.664-20.01 1.917 48.278 9.34 84.737 51.823 84.737 102.83v137.991h40.02v-137.991c0-57.85-46.897-104.747-104.747-104.747z" fill="url(#SVGID_9_)"/><path d="m504.284 224.256-206.559-206.558c-16.965-16.966-41.51-21.733-62.735-14.303 8.296 2.904 16.084 7.671 22.715 14.302l206.559 206.559c7.621 7.621 7.621 19.977 0 27.598l-18.092 18.092 6.211 6.211c7.621 7.621 19.977 7.621 27.598 0l24.303-24.303c7.621-7.621 7.621-19.977 0-27.598z" fill="url(#SVGID_10_)"/></g></svg>