<?xml version="1.0"?>
<svg xmlns="http://www.w3.org/2000/svg" xmlns:xlink="http://www.w3.org/1999/xlink" xmlns:svgjs="http://svgjs.com/svgjs" version="1.1" width="512" height="512" x="0" y="0" viewBox="0 0 128 128" style="enable-background:new 0 0 512 512" xml:space="preserve" class=""><g><g xmlns="http://www.w3.org/2000/svg" id="Circle_Grid" data-name="Circle Grid"><circle cx="64" cy="64" fill="#f6c863" r="64" data-original="#f6c863" style="" class=""/></g><g xmlns="http://www.w3.org/2000/svg" id="icon"><path d="m30.739 33.136h66.522a3.6 3.6 0 0 1 3.6 3.6v47.64a0 0 0 0 1 0 0h-73.718a0 0 0 0 1 0 0v-47.644a3.6 3.6 0 0 1 3.596-3.596z" fill="#e62c2c" data-original="#62667c" style="" class=""/><path d="m42.875 26.394h42.251v64.725h-42.251z" fill="#c5a640" transform="matrix(0 1 -1 0 122.756 -5.244)" data-original="#69b0ee" style="" class=""/><path d="m22.8 84.376h82.4a1.8 1.8 0 0 1 1.8 1.8v3.3a5.394 5.394 0 0 1 -5.394 5.394h-75.212a5.394 5.394 0 0 1 -5.394-5.4v-3.3a1.8 1.8 0 0 1 1.8-1.8z" fill="#634f4f" data-original="#4f5363" style="" class=""/><path d="m72.68 88.309h-17.36l-2.051-3.933h21.462z" fill="#e62c2c" data-original="#62667c" style="" class=""/><g fill="#eeefee"><path d="m42.324 59.667 14.332-7.382v2.131l-12.077 6.054v.062l12.077 6.054v2.131l-14.332-7.382z" fill="#eeefee" data-original="#eeefee" style=""/><path d="m58.674 69.954 8.618-22.395h2.1l-8.65 22.395z" fill="#eeefee" data-original="#eeefee" style=""/><path d="m85.676 61.366-14.332 7.351v-2.131l12.171-6.054v-.062l-12.171-6.054v-2.131l14.332 7.351z" fill="#eeefee" data-original="#eeefee" style=""/></g></g></g></svg>
