<svg id="Capa_1" enable-background="new 0 0 512 512" height="512" viewBox="0 0 512 512" width="512" xmlns="http://www.w3.org/2000/svg"><g><path d="m256 0c-107.523 0-195 87.477-195 195 0 39.805 11.938 78.083 34.525 110.696 20.916 30.2 49.561 53.68 83.109 68.188l63.909 129.743h26.912l63.909-129.743c33.549-14.509 62.193-37.988 83.109-68.188 22.589-32.613 34.527-70.891 34.527-110.696 0-107.523-87.477-195-195-195z" fill="#ff7038"/><path d="m269.456 503.628 63.909-129.743c33.549-14.509 62.193-37.988 83.109-68.188 22.588-32.614 34.526-70.892 34.526-110.697 0-107.523-87.477-195-195-195v503.628z" fill="#ff1f3d"/><path d="m406 512h-300c-8.284 0-15-6.716-15-15s6.716-15 15-15h300c8.284 0 15 6.716 15 15s-6.716 15-15 15z" fill="#bee75e"/><path d="m406 482h-150v30h150c8.284 0 15-6.716 15-15s-6.716-15-15-15z" fill="#00cb75"/><path d="m256 330c-74.439 0-135-60.561-135-135s60.561-135 135-135 135 60.561 135 135-60.561 135-135 135z" fill="#f4f4f6"/><path d="m391 195c0-74.439-60.561-135-135-135v270c74.439 0 135-60.561 135-135z" fill="#e2dff4"/><path d="m227.999 270c-2.427 0-4.859-.588-7.077-1.774-4.877-2.611-7.922-7.694-7.922-13.226v-120c0-5.532 3.045-10.615 7.922-13.226s10.796-2.325 15.398.745l90 60c4.173 2.781 6.68 7.465 6.68 12.48s-2.507 9.699-6.68 12.48l-90 60c-2.509 1.675-5.411 2.521-8.321 2.521z" fill="#ff7038"/><path d="m326.32 182.52-70.32-46.881v118.721l70.32-46.88c4.173-2.781 6.68-7.465 6.68-12.48s-2.507-9.699-6.68-12.48z" fill="#ff1f3d"/></g></svg>