<?xml version="1.0"?>
<svg xmlns="http://www.w3.org/2000/svg" xmlns:xlink="http://www.w3.org/1999/xlink" xmlns:svgjs="http://svgjs.com/svgjs" version="1.1" width="512" height="512" x="0" y="0" viewBox="0 0 512 512" style="enable-background:new 0 0 512 512" xml:space="preserve" class=""><g>
<circle xmlns="http://www.w3.org/2000/svg" style="" cx="256" cy="256" r="256" fill="#ff9114" data-original="#273b7a" class=""/>
<path xmlns="http://www.w3.org/2000/svg" style="" d="M292.03,509.464c100.421-14.148,182.122-86.545,209.829-181.932L361.915,187.589l-49.355,3.839  l-60.049-60.049l-24.093,18.889l-3.16,4.31l-42.277,40.093l74.993,74.993l-144.196,61.549L292.03,509.464z" fill="#492711" data-original="#121149" class=""/>
<path xmlns="http://www.w3.org/2000/svg" style="" d="M113.778,331.212c0-57.822,46.875-104.696,104.696-104.696S323.17,273.391,323.17,331.212H113.778z" fill="#ee0808" data-original="#ff7f4f" class=""/>
<path xmlns="http://www.w3.org/2000/svg" style="" d="M220.086,226.557v104.655H323.17C323.17,273.93,277.161,227.421,220.086,226.557z" fill="#ad320c" data-original="#d35933" class=""/>
<circle xmlns="http://www.w3.org/2000/svg" style="" cx="220.16" cy="165.685" r="47.161" fill="#ee0808" data-original="#ff7f4f" class=""/>
<path xmlns="http://www.w3.org/2000/svg" style="" d="M220.162,118.519c-0.026,0-0.05,0.002-0.076,0.002v94.317c0.026,0,0.05,0.002,0.076,0.002  c26.046,0,47.161-21.114,47.161-47.161C267.323,139.633,246.208,118.519,220.162,118.519z" fill="#ad320c" data-original="#d35933" class=""/>
<path xmlns="http://www.w3.org/2000/svg" style="" d="M378.613,304.499h-15.515v-80.551c0-17.93-14.588-32.518-32.516-32.518  c-17.93,0-32.518,14.588-32.518,32.518v80.551h-15.515v-80.551c0-26.486,21.547-48.033,48.033-48.033  c26.484,0,48.031,21.547,48.031,48.033V304.499z" fill="#ffffff" data-original="#ffffff" class=""/>
<path xmlns="http://www.w3.org/2000/svg" style="" d="M330.581,175.914c-0.055,0-0.11,0.003-0.165,0.003v15.519c0.055,0,0.109-0.009,0.165-0.009  c17.929,0,32.516,14.588,32.516,32.518v80.551h15.515v-80.551C378.613,197.461,357.066,175.914,330.581,175.914z" fill="#d0d1d3" data-original="#d0d1d3" class=""/>
<path xmlns="http://www.w3.org/2000/svg" style="" d="M387.348,372.031H273.813c-6.732,0-12.19-5.458-12.19-12.19v-90.55c0-6.732,5.458-12.19,12.19-12.19  h113.535c6.732,0,12.19,5.458,12.19,12.19v90.55C399.538,366.573,394.08,372.031,387.348,372.031z" fill="#f4bc11" data-original="#ffc61b" class=""/>
<g xmlns="http://www.w3.org/2000/svg">
	<path style="" d="M387.348,257.103h-56.932v114.928h56.932c6.732,0,12.19-5.458,12.19-12.19v-90.55   C399.538,262.561,394.08,257.103,387.348,257.103z" fill="#ec8441" data-original="#eaa22f" class=""/>
	<path style="" d="M346.958,304.178c0-9.045-7.332-16.377-16.377-16.377s-16.377,7.332-16.377,16.377   c0,6.058,3.298,11.335,8.189,14.169v18.337c0,4.522,3.667,8.189,8.189,8.189c4.522,0,8.189-3.667,8.189-8.189v-18.337   C343.659,315.513,346.958,310.236,346.958,304.178z" fill="#ec8441" data-original="#eaa22f" class=""/>
</g>
<path xmlns="http://www.w3.org/2000/svg" style="" d="M330.581,287.801c-0.055,0-0.109,0.009-0.165,0.009v57.047c0.057,0.002,0.109,0.017,0.165,0.017  c4.522,0,8.189-3.667,8.189-8.189v-18.337c4.891-2.832,8.189-8.109,8.189-14.169C346.958,295.133,339.625,287.801,330.581,287.801z" fill="#ff5419" data-original="#ff5419" class=""/>
<g xmlns="http://www.w3.org/2000/svg">
</g>
<g xmlns="http://www.w3.org/2000/svg">
</g>
<g xmlns="http://www.w3.org/2000/svg">
</g>
<g xmlns="http://www.w3.org/2000/svg">
</g>
<g xmlns="http://www.w3.org/2000/svg">
</g>
<g xmlns="http://www.w3.org/2000/svg">
</g>
<g xmlns="http://www.w3.org/2000/svg">
</g>
<g xmlns="http://www.w3.org/2000/svg">
</g>
<g xmlns="http://www.w3.org/2000/svg">
</g>
<g xmlns="http://www.w3.org/2000/svg">
</g>
<g xmlns="http://www.w3.org/2000/svg">
</g>
<g xmlns="http://www.w3.org/2000/svg">
</g>
<g xmlns="http://www.w3.org/2000/svg">
</g>
<g xmlns="http://www.w3.org/2000/svg">
</g>
<g xmlns="http://www.w3.org/2000/svg">
</g>
</g></svg>
