<svg height="512" viewBox="0 0 128 128" width="512" xmlns="http://www.w3.org/2000/svg"><g id="Circle_Grid" data-name="Circle Grid"><circle cx="64" cy="64" fill="#f6c863" r="64"/></g><g id="icon"><path d="m79.724 62.043h3.089v1.497h-3.089z" fill="#828a9e"/><path d="m45.124 62.043h3.089v1.497h-3.089z" fill="#828a9e"/><path d="m79.128 62.923v7.536a15.091 15.091 0 0 1 -30.182 0v-7.536z" fill="#484c59"/><path d="m79.128 38.087v24.836h-30.182v-24.836a15.058 15.058 0 0 1 .266-2.829 14.834 14.834 0 0 1 1.133-3.513 15.094 15.094 0 0 1 24.365-4.327 15.146 15.146 0 0 1 4.152 7.84 15.058 15.058 0 0 1 .266 2.829z" fill="#dbd8dd"/><path d="m82.385 61.02v3.8h1.64v5.736a20.025 20.025 0 1 1 -40.05 0v-5.734h1.9v-3.8h-5.7v9.538a23.827 23.827 0 1 0 47.654 0v-9.54z" fill="#62667c"/><path d="m47.598 61.02h32.884v3.802h-32.884z" fill="#62667c"/><g fill="#828a9e"><path d="m78.861 35.258h-9.718a1.757 1.757 0 0 1 0-3.513h8.585a14.834 14.834 0 0 1 1.133 3.513z"/><path d="m79.128 38.923v3.513h-9.985a1.757 1.757 0 0 1 -1.756-1.757 1.766 1.766 0 0 1 1.756-1.757z"/><path d="m79.128 46.1v3.513h-9.985a1.762 1.762 0 0 1 -1.756-1.757 1.766 1.766 0 0 1 1.756-1.756z"/><path d="m79.128 53.273v3.521h-9.985a1.762 1.762 0 0 1 -1.756-1.757v-.008a1.762 1.762 0 0 1 1.756-1.757z"/><path d="m60.687 33.5a1.757 1.757 0 0 1 -1.757 1.757h-9.718a14.834 14.834 0 0 1 1.133-3.513h8.585a1.766 1.766 0 0 1 1.757 1.756z"/><path d="m60.687 40.68a1.757 1.757 0 0 1 -1.757 1.757h-9.984v-3.514h9.984a1.754 1.754 0 0 1 1.239.517 1.727 1.727 0 0 1 .518 1.24z"/><path d="m60.687 47.859a1.762 1.762 0 0 1 -1.757 1.757h-9.984v-3.516h9.984a1.754 1.754 0 0 1 1.239.517 1.727 1.727 0 0 1 .518 1.242z"/><path d="m60.687 55.029v.008a1.762 1.762 0 0 1 -1.757 1.757h-9.984v-3.521h9.984a1.762 1.762 0 0 1 1.757 1.756z"/></g><path d="m60.641 92.199h6.717v12.801h-6.717z" fill="#62667c"/></g></svg>