<?xml version="1.0"?>
<svg xmlns="http://www.w3.org/2000/svg" xmlns:xlink="http://www.w3.org/1999/xlink" xmlns:svgjs="http://svgjs.com/svgjs" version="1.1" width="512" height="512" x="0" y="0" viewBox="0 0 512 512" style="enable-background:new 0 0 512 512" xml:space="preserve" class=""><g><g xmlns="http://www.w3.org/2000/svg" id="BULINE"><circle cx="256" cy="256" fill="#f7bb38" r="256" data-original="#f7bb38" style="" class=""/></g><g xmlns="http://www.w3.org/2000/svg" id="Icons"><path d="m268.71 498.65h-22.71a8.36 8.36 0 0 1 -8.29-7.22l-4.51-32.49h48.29l-4.49 32.49a8.36 8.36 0 0 1 -8.29 7.22z" fill="#32314b" data-original="#32314b" style="" class=""/><path d="m276.08 466.26h-38.81a20 20 0 0 1 -20-19.2l-8.27-197.35h96.68l-9.58 197.35a20 20 0 0 1 -20.02 19.2z" fill="#4f4f74" data-original="#4f4f74" style="" class=""/><path d="m254.7 466.27h-17.43a20.05 20.05 0 0 1 -20-19.22l-8.27-197.34h17.43l8.21 197.34a20.06 20.06 0 0 0 20.06 19.22z" fill="#3e436d" data-original="#3e436d" style=""/><path d="m305.71 250.62h-96.68l-4.51-67.78h105.7z" fill="#32314b" data-original="#32314b" style="" class=""/><path d="m309 201.47h-48.9a35.7 35.7 0 0 0 -35.61 38.06l.74 11.09h-16.23l-4.51-67.78h105.7z" fill="#27273d" data-original="#27273d" style="" class=""/><circle cx="257.37" cy="104.4" fill="#ffffff" r="78.44" data-original="#ffffff" style=""/><path d="m274.54 180.94a78.44 78.44 0 1 1 0-153.1 78.45 78.45 0 0 0 0 153.1z" fill="#d6d6d8" data-original="#d6d6d8" style="" class=""/><rect fill="#afafaf" height="29" rx="14.5" width="180.33" x="167.21" y="84.56" data-original="#afafaf" style=""/><path d="m347.06 104.23a14.46 14.46 0 0 1 -13.54 9.33h-151.34a14.5 14.5 0 0 1 -2.12-28.84 14.3 14.3 0 0 0 -.95 5.17 14.5 14.5 0 0 0 14.5 14.5h151.32a13.61 13.61 0 0 0 2.13-.16z" fill="#9f9fa0" data-original="#9f9fa0" style=""/><path d="m309.67 182.84h-104.6a12.16 12.16 0 0 1 -11.62-8.57l-3.68-12a7.6 7.6 0 0 1 7.26-9.84h120.68a7.6 7.6 0 0 1 7.26 9.84l-3.68 12a12.16 12.16 0 0 1 -11.62 8.57z" fill="#cccccc" data-original="#cccccc" style="" class=""/><rect fill="#3e436d" height="56.95" rx="8.64" width="22.24" x="246.25" y="278.72" data-original="#3e436d" style=""/><circle cx="257.37" cy="299.31" fill="#e88032" r="11.12" data-original="#e88032" style=""/><g fill="#d6d6d8"><circle cx="303.13" cy="167.66" r="10.07" fill="#d6d6d8" data-original="#d6d6d8" style="" class=""/><circle cx="282.15" cy="167.66" r="7.13" fill="#d6d6d8" data-original="#d6d6d8" style="" class=""/></g></g></g></svg>
