<svg height="512pt" viewBox="-31 0 512 512" width="512pt" xmlns="http://www.w3.org/2000/svg"><path d="m394.957031 512h-339.914062c-30.351563 0-55.042969-24.691406-55.042969-55.042969v-401.914062c0-30.351563 24.691406-55.042969 55.042969-55.042969h339.914062c30.351563 0 55.042969 24.691406 55.042969 55.042969v401.917969c0 30.347656-24.691406 55.039062-55.042969 55.039062zm0 0" fill="#fed32d"/><path d="m394.960938 0h-169.960938v512h169.960938c30.347656 0 55.039062-24.691406 55.039062-55.039062v-401.921876c0-30.347656-24.691406-55.039062-55.039062-55.039062zm0 0" fill="#fdc334"/><path d="m255 121.1875h-120c-8.285156 0-15-6.714844-15-15 0-8.28125 6.714844-15 15-15h120c8.285156 0 15 6.71875 15 15 0 8.285156-6.714844 15-15 15zm0 0" fill="#fe9e24"/><path d="m270 106.191406c0 8.277344-6.71875 15-15 15h-30v-30h30c8.28125 0 15 6.707032 15 15zm0 0" fill="#fd7b29"/><path d="m255 181.3125h-120c-8.285156 0-15-6.714844-15-15 0-8.28125 6.714844-15 15-15h120c8.285156 0 15 6.71875 15 15 0 8.285156-6.714844 15-15 15zm0 0" fill="#fe9e24"/><path d="m270 166.308594c0 8.292968-6.71875 15-15 15h-30v-30h30c8.28125 0 15 6.722656 15 15zm0 0" fill="#fd7b29"/><path d="m255 241.4375h-120c-8.285156 0-15-6.714844-15-15s6.714844-15 15-15h120c8.285156 0 15 6.714844 15 15s-6.714844 15-15 15zm0 0" fill="#fe9e24"/><path d="m270 226.441406c0 8.277344-6.71875 15-15 15h-30v-30h30c8.28125 0 15 6.707032 15 15zm0 0" fill="#fd7b29"/><g fill="#fe9e24"><path d="m90 106.1875c0-8.300781-6.714844-15.03125-15-15.03125s-15 6.730469-15 15.03125c0 8.304688 6.714844 15.03125 15 15.03125s15-6.726562 15-15.03125zm0 0"/><path d="m90 166.3125c0-8.300781-6.714844-15.03125-15-15.03125s-15 6.730469-15 15.03125c0 8.304688 6.714844 15.03125 15 15.03125s15-6.726562 15-15.03125zm0 0"/><path d="m90 226.4375c0-8.300781-6.714844-15.03125-15-15.03125s-15 6.730469-15 15.03125c0 8.304688 6.714844 15.03125 15 15.03125s15-6.726562 15-15.03125zm0 0"/></g><path d="m361.515625 114.699219-39.277344-21.648438c-9.972656-5.496093-22.238281 1.730469-22.238281 13.136719v165.375h-74.9375c-41.042969 0-75.0625 33.277344-75.0625 75.1875 0 41.390625 33.671875 75.0625 75.0625 75.0625h29.875c41.257812 0 75.0625-33.515625 75.0625-75.125 0-3.121094 0-183.257812 0-215.101562l17.035156 9.390624c7.996094 4.402344 12.964844 12.828126 12.964844 21.980469v63.480469c0 8.285156 6.714844 15 15 15s15-6.714844 15-15v-63.480469c0-20.082031-10.914062-38.574219-28.484375-48.257812zm0 0" fill="#db166c"/><path d="m390 162.960938v63.480468c0 8.277344-6.71875 15-15 15s-15-6.722656-15-15v-63.480468c0-9.160157-4.96875-17.582032-12.960938-21.992188l-17.039062-9.390625v215.171875c0 41.390625-33.671875 75.058594-75.058594 75.058594h-29.941406v-150.25h75v-165.367188c0-11.402344 12.238281-18.648437 22.238281-13.140625l39.28125 21.648438c17.570313 9.679687 28.480469 28.171875 28.480469 48.261719zm0 0" fill="#bf0c4c"/></svg>