<?xml version="1.0"?>
<svg xmlns="http://www.w3.org/2000/svg" xmlns:xlink="http://www.w3.org/1999/xlink" xmlns:svgjs="http://svgjs.com/svgjs" version="1.1" width="512" height="512" x="0" y="0" viewBox="0 0 512 512" style="enable-background:new 0 0 512 512" xml:space="preserve" class=""><g>
<rect xmlns="http://www.w3.org/2000/svg" x="70.621" y="52.966" style="" width="370.759" height="406.069" fill="#e69e3c" data-original="#e64c3c" class=""/>
<g xmlns="http://www.w3.org/2000/svg">
	<path style="" d="M176.552,397.241c-29.21,0-52.966-23.755-52.966-52.966c0-29.21,23.755-52.966,52.966-52.966   s52.966,23.755,52.966,52.966S205.762,397.241,176.552,397.241z M176.552,308.966c-19.474,0-35.31,15.837-35.31,35.31   c0,19.474,15.837,35.31,35.31,35.31s35.31-15.837,35.31-35.31C211.862,324.802,196.025,308.966,176.552,308.966z" fill="#ffffff" data-original="#ffffff"/>
	<path style="" d="M335.448,361.931c-29.21,0-52.966-23.755-52.966-52.966S306.238,256,335.448,256   c29.21,0,52.966,23.755,52.966,52.966S364.659,361.931,335.448,361.931z M335.448,273.655c-19.474,0-35.31,15.837-35.31,35.31   s15.837,35.31,35.31,35.31s35.31-15.837,35.31-35.31S354.922,273.655,335.448,273.655z" fill="#ffffff" data-original="#ffffff"/>
	<path style="" d="M220.69,353.103c-4.873,0-8.828-3.946-8.828-8.828V211.862c0-4.882,3.955-8.828,8.828-8.828   c4.873,0,8.828,3.946,8.828,8.828v132.414C229.517,349.158,225.562,353.103,220.69,353.103z" fill="#ffffff" data-original="#ffffff"/>
	<path style="" d="M379.586,317.793c-4.873,0-8.828-3.946-8.828-8.828V176.552c0-4.882,3.955-8.828,8.828-8.828   s8.828,3.946,8.828,8.828v132.414C388.414,313.847,384.459,317.793,379.586,317.793z" fill="#ffffff" data-original="#ffffff"/>
	<path style="" d="M220.69,220.69c-1.995,0-3.946-0.671-5.517-1.942c-2.092-1.677-3.31-4.202-3.31-6.886v-52.966   c0-4.14,2.878-7.715,6.912-8.625l158.897-35.31c2.622-0.547,5.358,0.062,7.433,1.739c2.092,1.677,3.31,4.202,3.31,6.886v52.966   c0,4.14-2.878,7.715-6.912,8.625l-158.897,35.31C221.97,220.619,221.325,220.69,220.69,220.69z M229.517,165.976v34.878   l141.241-31.382v-34.878L229.517,165.976z M379.586,176.552h0.088H379.586z" fill="#ffffff" data-original="#ffffff"/>
</g>
<rect xmlns="http://www.w3.org/2000/svg" x="476.69" y="97.103" style="" width="35.31" height="317.793" fill="#9b1f2f" data-original="#9b271f" class=""/>
<rect xmlns="http://www.w3.org/2000/svg" x="441.379" y="79.448" style="" width="35.31" height="353.103" fill="#c03a2b" data-original="#c03a2b" class=""/>
<rect xmlns="http://www.w3.org/2000/svg" y="97.103" style="" width="35.31" height="317.793" fill="#9b1f2f" data-original="#9b271f" class=""/>
<rect xmlns="http://www.w3.org/2000/svg" x="35.31" y="79.448" style="" width="35.31" height="353.103" fill="#c03a2b" data-original="#c03a2b" class=""/>
<g xmlns="http://www.w3.org/2000/svg">
</g>
<g xmlns="http://www.w3.org/2000/svg">
</g>
<g xmlns="http://www.w3.org/2000/svg">
</g>
<g xmlns="http://www.w3.org/2000/svg">
</g>
<g xmlns="http://www.w3.org/2000/svg">
</g>
<g xmlns="http://www.w3.org/2000/svg">
</g>
<g xmlns="http://www.w3.org/2000/svg">
</g>
<g xmlns="http://www.w3.org/2000/svg">
</g>
<g xmlns="http://www.w3.org/2000/svg">
</g>
<g xmlns="http://www.w3.org/2000/svg">
</g>
<g xmlns="http://www.w3.org/2000/svg">
</g>
<g xmlns="http://www.w3.org/2000/svg">
</g>
<g xmlns="http://www.w3.org/2000/svg">
</g>
<g xmlns="http://www.w3.org/2000/svg">
</g>
<g xmlns="http://www.w3.org/2000/svg">
</g>
</g></svg>
