<?xml version="1.0"?>
<svg xmlns="http://www.w3.org/2000/svg" xmlns:xlink="http://www.w3.org/1999/xlink" xmlns:svgjs="http://svgjs.com/svgjs" version="1.1" width="512" height="512" x="0" y="0" viewBox="0 0 512 512" style="enable-background:new 0 0 512 512" xml:space="preserve" class=""><g><g xmlns="http://www.w3.org/2000/svg"><path d="m260.723 27.705c-138.217 0-250.265 89.467-250.265 199.83 0 74.753 51.409 139.913 127.534 174.183 10.768 4.848 13.646 18.824 5.625 27.491-16.74 18.089-39.826 33.265-71.379 37.819-3.564.514-4.314 5.331-1.079 6.913 30.17 14.752 118.188 47.008 181.446-39.592 3.191-4.368 8.267-6.955 13.675-7.043 142.684-2.33 244.707-96.784 244.707-199.77.001-110.364-112.046-199.831-250.264-199.831z" fill="#f8800f" data-original="#ffe07d" style="" class=""/><path d="m333.29 36.248c80.22 33.29 135.021 100.239 135.021 177.417 0 102.986-102.023 197.44-244.707 199.77-5.409.088-10.484 2.675-13.675 7.043-42.304 57.914-95.677 62.669-135.421 55.055 32.899 15.254 117.032 42.415 178.099-41.185 3.191-4.368 8.266-6.955 13.675-7.043 142.684-2.33 244.707-96.784 244.707-199.77-.001-90.212-74.872-166.449-177.699-191.287z" fill="#f4c650" data-original="#ffd064" style="" class=""/><circle cx="55.542" cy="75.339" fill="#cf5863" r="55.542" data-original="#dd636e" style="" class=""/><path d="m55.542 19.797c-4.504 0-8.878.55-13.072 1.562 24.365 5.88 42.47 27.81 42.47 53.98s-18.105 48.1-42.47 53.98c4.194 1.012 8.567 1.562 13.072 1.562 30.675 0 55.542-24.867 55.542-55.542s-24.867-55.542-55.542-55.542z" fill="#da4a54" data-original="#da4a54" style="" class=""/><g><g><path d="m33.2 93.841c-2.044 0-4.086-.807-5.605-2.406-2.938-3.095-2.811-7.985.284-10.924 3.412-3.239 5.259-5.991 6.227-8.221h-3.379c-4.268 0-7.726-3.459-7.726-7.726 0-4.268 3.459-7.726 7.726-7.726h11.761c3.707 0 6.891 2.633 7.589 6.274 1.895 9.902-1.993 19.527-11.557 28.608-1.496 1.417-3.41 2.121-5.32 2.121z" fill="#dad8e8" data-original="#453d81" style="" class=""/></g><g><path d="m70.753 93.841c-2.044 0-4.086-.807-5.605-2.406-2.938-3.095-2.811-7.985.284-10.924 3.412-3.239 5.259-5.991 6.226-8.221h-3.379c-4.268 0-7.726-3.459-7.726-7.726 0-4.268 3.459-7.726 7.726-7.726h11.762c3.707 0 6.892 2.634 7.589 6.275 1.894 9.902-1.994 19.527-11.557 28.607-1.496 1.417-3.409 2.121-5.32 2.121z" fill="#dad8e8" data-original="#453d81" style="" class=""/></g></g><circle cx="456.458" cy="384.782" fill="#cf5863" r="55.542" data-original="#dd636e" style="" class=""/><path d="m456.458 329.24c-4.504 0-8.878.55-13.072 1.562 24.365 5.88 42.47 27.81 42.47 53.98s-18.105 48.1-42.47 53.98c4.194 1.012 8.567 1.562 13.072 1.562 30.675 0 55.542-24.867 55.542-55.542s-24.867-55.542-55.542-55.542z" fill="#da4a54" data-original="#da4a54" style="" class=""/><g><g><path d="m434.115 403.284c-2.045 0-4.086-.807-5.605-2.407-2.938-3.095-2.811-7.985.285-10.923 3.412-3.239 5.258-5.99 6.226-8.22h-3.379c-4.268 0-7.726-3.459-7.726-7.726s3.459-7.726 7.726-7.726h11.761c3.707 0 6.891 2.633 7.589 6.274 1.896 9.902-1.993 19.527-11.558 28.607-1.495 1.416-3.408 2.121-5.319 2.121z" fill="#dad8e8" data-original="#453d81" style="" class=""/></g><g><path d="m471.669 403.284c-2.045 0-4.086-.807-5.605-2.407-2.938-3.095-2.811-7.985.285-10.923 3.411-3.239 5.258-5.99 6.225-8.22h-3.379c-4.268 0-7.726-3.459-7.726-7.726s3.459-7.726 7.726-7.726h11.762c3.707 0 6.892 2.633 7.589 6.275 1.894 9.903-1.994 19.527-11.558 28.606-1.495 1.416-3.409 2.121-5.319 2.121z" fill="#dad8e8" data-original="#453d81" style="" class=""/></g></g><g><g><path d="m256.69 143.5h-137.013c-4.268 0-7.726-3.459-7.726-7.726 0-4.268 3.459-7.726 7.726-7.726h137.013c4.268 0 7.726 3.459 7.726 7.726s-3.459 7.726-7.726 7.726z" fill="#f4c650" data-original="#ffd064" style="" class=""/></g><g><path d="m400.915 180.192h-281.238c-4.268 0-7.726-3.459-7.726-7.726 0-4.268 3.459-7.726 7.726-7.726h281.238c4.268 0 7.726 3.459 7.726 7.726s-3.458 7.726-7.726 7.726z" fill="#f4c650" data-original="#ffd064" style="" class=""/></g><g><path d="m400.915 216.885h-281.238c-4.268 0-7.726-3.459-7.726-7.726 0-4.268 3.459-7.726 7.726-7.726h281.238c4.268 0 7.726 3.459 7.726 7.726 0 4.268-3.458 7.726-7.726 7.726z" fill="#f4c650" data-original="#ffd064" style="" class=""/></g><g><path d="m400.915 253.577h-281.238c-4.268 0-7.726-3.459-7.726-7.726s3.459-7.726 7.726-7.726h281.238c4.268 0 7.726 3.459 7.726 7.726s-3.458 7.726-7.726 7.726z" fill="#f4c650" data-original="#ffd064" style="" class=""/></g><g><path d="m400.915 290.271h-281.238c-4.268 0-7.726-3.459-7.726-7.726s3.459-7.726 7.726-7.726h281.238c4.268 0 7.726 3.459 7.726 7.726s-3.458 7.726-7.726 7.726z" fill="#f4c650" data-original="#ffd064" style="" class=""/></g><g><path d="m400.915 326.963h-144.225c-4.268 0-7.726-3.459-7.726-7.726 0-4.268 3.459-7.726 7.726-7.726h144.225c4.268 0 7.726 3.459 7.726 7.726s-3.458 7.726-7.726 7.726z" fill="#f4c650" data-original="#ffd064" style="" class=""/></g></g></g></g></svg>
