<?xml version="1.0"?>
<svg xmlns="http://www.w3.org/2000/svg" xmlns:xlink="http://www.w3.org/1999/xlink" xmlns:svgjs="http://svgjs.com/svgjs" version="1.1" width="512" height="512" x="0" y="0" viewBox="0 0 512 512" style="enable-background:new 0 0 512 512" xml:space="preserve" class=""><g><g xmlns="http://www.w3.org/2000/svg"><g><g><g><g><g><g><g><g><g><circle cx="256" cy="256" fill="#e85e10" r="256" data-original="#fe6a16" style="" class=""/></g></g></g></g></g></g></g></g></g><path d="m84.11 302.131 204.544 207.806c125.965-16.037 223.346-123.615 223.346-253.937 0-12.759-.934-25.299-2.736-37.557l-124.392-126.099z" fill="#f03d00" data-original="#ea4006" style="" class=""/><g><path d="m112.983 285.647h220.669v69.937h-220.669z" fill="#f5f8fa" transform="matrix(.866 .5 -.5 .866 190.227 -68.705)" data-original="#414952" style="" class=""/><path d="m112.983 156.416h220.669v69.937h-220.669z" fill="#fafbff" transform="matrix(.866 -.5 .5 .866 -65.774 137.3)" data-original="#555a66" style="" class=""/></g><g><circle cx="125.834" cy="256" fill="#ffce00" r="62.202" data-original="#ffce00" style="" class=""/><path d="m188.036 256c0 34.353-27.849 62.202-62.202 62.202s-62.202-27.849-62.202-62.202z" fill="#ffaa00" data-original="#ffaa00" style="" class=""/></g><g><circle cx="333.931" cy="128.046" fill="#ffce00" r="62.202" data-original="#ffce00" style="" class=""/><circle cx="333.931" cy="383.954" fill="#ffaa00" r="62.202" data-original="#ffaa00" style="" class=""/></g></g></g></svg>
